HIERARCHY
ROOT Hips
{
	OFFSET 0.000000 121.760803 0.000000
	CHANNELS 6 Xposition Yposition Zposition Xrotation Yrotation Zrotation 
	JOINT Spine
	{
		OFFSET 0.072000 7.257294 -0.789700
		CHANNELS 3 Xrotation Yrotation Zrotation
		JOINT Spine1
		{
			OFFSET 0.000000 12.508769 -0.658067
			CHANNELS 3 Xrotation Yrotation Zrotation
			JOINT Spine1_split
			{
				OFFSET 0.000000 12.508769 -0.658067
				CHANNELS 3 Xrotation Yrotation Zrotation
				JOINT Spine2
				{
					OFFSET 0.000000 12.508769 -0.658067
					CHANNELS 3 Xrotation Yrotation Zrotation
					JOINT Neck
					{
						OFFSET 0.000000 14.033295 7.520400
						CHANNELS 3 Xrotation Yrotation Zrotation
						JOINT Head
						{
							OFFSET 0.000000 8.198502 5.703100
							CHANNELS 3 Xrotation Yrotation Zrotation
							JOINT HeadTop_End
							{
								OFFSET 0.000000 17.760803 13.332701
								CHANNELS 3 Xrotation Yrotation Zrotation
								End Site
								{
									OFFSET 0.000000 0.000000 0.000000
								}
							}
						}
					}
					JOINT LeftShoulder
					{
						OFFSET 6.292450 5.785301 -0.669000
						CHANNELS 3 Xrotation Yrotation Zrotation
						JOINT LeftShoulder_split
						{
							OFFSET 6.292450 5.785301 -0.669000
							CHANNELS 3 Xrotation Yrotation Zrotation
							JOINT LeftArm
							{
								OFFSET 13.907140 -6.093903 1.965100
								CHANNELS 3 Xrotation Yrotation Zrotation
								JOINT LeftForeArm
								{
									OFFSET 34.140198 0.000000 0.000000
									CHANNELS 3 Xrotation Yrotation Zrotation
									JOINT LeftHand
									{
										OFFSET 40.960209 0.000000 0.000000
										CHANNELS 3 Xrotation Yrotation Zrotation
										JOINT LeftHandThumb1
										{
											OFFSET 10.006996 -7.170425 9.573125
											CHANNELS 3 Xrotation Yrotation Zrotation
											JOINT LeftHandThumb2
											{
												OFFSET 1.835007 -1.059448 1.059443
												CHANNELS 3 Xrotation Yrotation Zrotation
												JOINT LeftHandThumb3
												{
													OFFSET 2.112267 -1.219513 1.219518
													CHANNELS 3 Xrotation Yrotation Zrotation
													JOINT LeftHandThumb4
													{
														OFFSET 4.843811 -2.796570 2.796576
														CHANNELS 3 Xrotation Yrotation Zrotation
														End Site
														{
															OFFSET 0.000000 0.000000 0.000000
														}
													}
												}
											}
										}
										JOINT LeftHandIndex1
										{
											OFFSET 18.389847 -0.922348 4.596882
											CHANNELS 3 Xrotation Yrotation Zrotation
											JOINT LeftHandIndex2
											{
												OFFSET 4.711273 0.000000 0.000000
												CHANNELS 3 Xrotation Yrotation Zrotation
												JOINT LeftHandIndex3
												{
													OFFSET 2.886131 0.000000 0.000000
													CHANNELS 3 Xrotation Yrotation Zrotation
													JOINT LeftHandIndex4
													{
														OFFSET 6.145912 0.000000 0.000000
														CHANNELS 3 Xrotation Yrotation Zrotation
														End Site
														{
															OFFSET 0.000000 0.000000 0.000000
														}
													}
												}
											}
										}
										JOINT LeftHandMiddle1
										{
											OFFSET 18.013008 0.000000 0.000000
											CHANNELS 3 Xrotation Yrotation Zrotation
											JOINT LeftHandMiddle2
											{
												OFFSET 4.946693 0.000000 0.000000
												CHANNELS 3 Xrotation Yrotation Zrotation
												JOINT LeftHandMiddle3
												{
													OFFSET 3.342232 0.000000 0.000000
													CHANNELS 3 Xrotation Yrotation Zrotation
													JOINT LeftHandMiddle4
													{
														OFFSET 4.461754 0.000000 0.000000
														CHANNELS 3 Xrotation Yrotation Zrotation
														End Site
														{
															OFFSET 0.000000 0.000000 0.000000
														}
													}
												}
											}
										}
										JOINT LeftHandRing1
										{
											OFFSET 15.849892 -0.102921 -4.126150
											CHANNELS 3 Xrotation Yrotation Zrotation
											JOINT LeftHandRing2
											{
												OFFSET 3.527054 0.000000 0.000000
												CHANNELS 3 Xrotation Yrotation Zrotation
												JOINT LeftHandRing3
												{
													OFFSET 2.961098 0.000000 0.000000
													CHANNELS 3 Xrotation Yrotation Zrotation
													JOINT LeftHandRing4
													{
														OFFSET 4.927200 0.000000 0.000000
														CHANNELS 3 Xrotation Yrotation Zrotation
														End Site
														{
															OFFSET 0.000000 0.000000 0.000000
														}
													}
												}
											}
										}
										JOINT LeftHandPinky1
										{
											OFFSET 12.791824 -0.832031 -6.799156
											CHANNELS 3 Xrotation Yrotation Zrotation
											JOINT LeftHandPinky2
											{
												OFFSET 3.327133 0.000000 0.000000
												CHANNELS 3 Xrotation Yrotation Zrotation
												JOINT LeftHandPinky3
												{
													OFFSET 3.014900 0.000000 0.000000
													CHANNELS 3 Xrotation Yrotation Zrotation
													JOINT LeftHandPinky4
													{
														OFFSET 5.847786 0.000000 0.000000
														CHANNELS 3 Xrotation Yrotation Zrotation
														End Site
														{
															OFFSET 0.000000 0.000000 0.000000
														}
													}
												}
											}
										}
									}
								}
							}
						}
					}
					JOINT RightShoulder
					{
						OFFSET -6.292450 5.785301 -0.669000
						CHANNELS 3 Xrotation Yrotation Zrotation
						JOINT RightShoulder_split
						{
							OFFSET -6.292450 5.785301 -0.669000
							CHANNELS 3 Xrotation Yrotation Zrotation
							JOINT RightArm
							{
								OFFSET -13.907140 -6.093903 1.965100
								CHANNELS 3 Xrotation Yrotation Zrotation
								JOINT RightForeArm
								{
									OFFSET -34.140198 0.000000 0.000000
									CHANNELS 3 Xrotation Yrotation Zrotation
									JOINT RightHand
									{
										OFFSET -40.960209 0.000000 0.000000
										CHANNELS 3 Xrotation Yrotation Zrotation
										JOINT RightHandThumb1
										{
											OFFSET -10.007050 -7.170456 9.573117
											CHANNELS 3 Xrotation Yrotation Zrotation
											JOINT RightHandThumb2
											{
												OFFSET -1.835007 -1.059448 1.059443
												CHANNELS 3 Xrotation Yrotation Zrotation
												JOINT RightHandThumb3
												{
													OFFSET -2.112267 -1.219513 1.219518
													CHANNELS 3 Xrotation Yrotation Zrotation
													JOINT RightHandThumb4
													{
														OFFSET -4.843834 -2.796585 2.796590
														CHANNELS 3 Xrotation Yrotation Zrotation
														End Site
														{
															OFFSET 0.000000 0.000000 0.000000
														}
													}
												}
											}
										}
										JOINT RightHandIndex1
										{
											OFFSET -18.389870 -0.922424 4.596786
											CHANNELS 3 Xrotation Yrotation Zrotation
											JOINT RightHandIndex2
											{
												OFFSET -4.711273 0.000000 0.000000
												CHANNELS 3 Xrotation Yrotation Zrotation
												JOINT RightHandIndex3
												{
													OFFSET -2.886131 0.000000 0.000000
													CHANNELS 3 Xrotation Yrotation Zrotation
													JOINT RightHandIndex4
													{
														OFFSET -6.145920 0.000000 0.000000
														CHANNELS 3 Xrotation Yrotation Zrotation
														End Site
														{
															OFFSET 0.000000 0.000000 0.000000
														}
													}
												}
											}
										}
										JOINT RightHandMiddle1
										{
											OFFSET -18.013008 0.000000 0.000000
											CHANNELS 3 Xrotation Yrotation Zrotation
											JOINT RightHandMiddle2
											{
												OFFSET -4.946693 0.000000 0.000000
												CHANNELS 3 Xrotation Yrotation Zrotation
												JOINT RightHandMiddle3
												{
													OFFSET -3.342232 0.000000 0.000000
													CHANNELS 3 Xrotation Yrotation Zrotation
													JOINT RightHandMiddle4
													{
														OFFSET -4.461754 0.000000 0.000000
														CHANNELS 3 Xrotation Yrotation Zrotation
														End Site
														{
															OFFSET 0.000000 0.000000 0.000000
														}
													}
												}
											}
										}
										JOINT RightHandRing1
										{
											OFFSET -15.849876 -0.102936 -4.126237
											CHANNELS 3 Xrotation Yrotation Zrotation
											JOINT RightHandRing2
											{
												OFFSET -3.527054 0.000000 0.000000
												CHANNELS 3 Xrotation Yrotation Zrotation
												JOINT RightHandRing3
												{
													OFFSET -2.961098 0.000000 0.000000
													CHANNELS 3 Xrotation Yrotation Zrotation
													JOINT RightHandRing4
													{
														OFFSET -4.927200 0.000000 0.000000
														CHANNELS 3 Xrotation Yrotation Zrotation
														End Site
														{
															OFFSET 0.000000 0.000000 0.000000
														}
													}
												}
											}
										}
										JOINT RightHandPinky1
										{
											OFFSET -12.791786 -0.832077 -6.799222
											CHANNELS 3 Xrotation Yrotation Zrotation
											JOINT RightHandPinky2
											{
												OFFSET -3.327133 0.000000 0.000000
												CHANNELS 3 Xrotation Yrotation Zrotation
												JOINT RightHandPinky3
												{
													OFFSET -3.014900 0.000000 0.000000
													CHANNELS 3 Xrotation Yrotation Zrotation
													JOINT RightHandPinky4
													{
														OFFSET -5.847786 0.000000 0.000000
														CHANNELS 3 Xrotation Yrotation Zrotation
														End Site
														{
															OFFSET 0.000000 0.000000 0.000000
														}
													}
												}
											}
										}
									}
								}
							}
						}
					}
				}
			}
		}
	}
	JOINT LeftUpLeg
	{
		OFFSET 13.026900 -6.336304 -1.092800
		CHANNELS 3 Xrotation Yrotation Zrotation
		JOINT LeftLeg
		{
			OFFSET 0.524474 -46.096886 9.782700
			CHANNELS 3 Xrotation Yrotation Zrotation
			JOINT LeftFoot
			{
				OFFSET -0.524474 -53.427422 -12.948200
				CHANNELS 3 Xrotation Yrotation Zrotation
				JOINT LeftToeBase
				{
					OFFSET 0.192200 -14.009700 16.364100
					CHANNELS 3 Xrotation Yrotation Zrotation
					JOINT LeftToe_End
					{
						OFFSET -1.784700 -0.561700 9.474800
						CHANNELS 3 Xrotation Yrotation Zrotation
						End Site
						{
							OFFSET 0.000000 0.000000 0.000000
						}
					}
				}
			}
		}
	}
	JOINT RightUpLeg
	{
		OFFSET -12.883000 -6.336304 -1.092800
		CHANNELS 3 Xrotation Yrotation Zrotation
		JOINT RightLeg
		{
			OFFSET -0.524587 -46.096825 9.782800
			CHANNELS 3 Xrotation Yrotation Zrotation
			JOINT RightFoot
			{
				OFFSET 0.524587 -53.427383 -12.948300
				CHANNELS 3 Xrotation Yrotation Zrotation
				JOINT RightToeBase
				{
					OFFSET -0.192200 -14.009700 16.364100
					CHANNELS 3 Xrotation Yrotation Zrotation
					JOINT RightToe_End
					{
						OFFSET 1.784700 -0.561700 9.474800
						CHANNELS 3 Xrotation Yrotation Zrotation
						End Site
						{
							OFFSET 0.000000 0.000000 0.000000
						}
					}
				}
			}
		}
	}
}
MOTION
Frames: 4
Frame Time: 0.016667
15.860480 102.787781 87.591927 -196.508559 47.293531 187.291546 12.822644 3.280103 -4.609371 11.924113 11.118066 -15.175191 0.000000 0.000000 0.000000 1.101634 14.665745 -10.905802 10.816994 7.709373 8.813434 -10.499616 11.214110 -3.938370 0.000001 -0.000000 -0.000000 0.441626 12.913608 -8.023907 0.000000 0.000000 0.000000 24.289898 30.045172 -67.066686 -59.876628 -28.113482 -29.309540 -3.278552 20.437915 28.775563 14.303306 -13.828670 17.477155 -1.153273 11.257899 -8.413994 5.706537 8.483127 -0.820710 0.000001 -0.000001 0.000000 -1.170664 -7.739201 -1.295041 -0.043942 -0.937991 -21.136818 0.078795 -0.197839 -2.210118 0.000003 -0.000001 -0.000003 1.351900 3.178799 -22.421073 0.508242 -1.065593 -16.741330 0.662321 -1.351741 -20.312467 -0.000001 -0.000000 -0.000000 1.727808 5.794776 -31.799151 -0.855262 -0.880755 -22.637690 -0.896779 -1.043627 -25.799535 0.000000 -0.000001 0.000000 1.357504 4.983805 -40.153145 -1.028398 -0.556623 -20.486645 -2.595590 -0.375256 -38.417686 -0.000001 0.000001 -0.000002 1.205991 17.292717 2.836858 0.000000 0.000000 0.000000 -64.233373 30.995556 72.958073 51.591134 12.758248 4.090926 2.838914 31.571843 -10.829779 55.149577 18.649533 -29.698277 -0.442586 -14.180512 7.313133 21.666989 -29.244497 9.142384 -0.000000 0.000003 0.000002 5.673368 7.585032 36.844185 1.050472 3.824474 68.900244 0.499586 3.026049 62.196454 0.000003 0.000002 -0.000002 -0.125685 1.886107 45.000773 -1.169020 3.204654 68.417650 -0.936417 1.813602 41.107555 0.000001 -0.000001 -0.000002 -5.312008 1.216656 58.508807 -0.745227 1.667575 48.011309 -0.816486 1.840592 53.666558 -0.000001 -0.000001 0.000003 -7.756832 -9.376444 47.263997 -0.526035 1.541562 45.600525 -0.508181 0.803465 24.986606 0.000001 -0.000000 0.000000 -50.485234 -5.244596 14.862041 29.621943 -41.089841 4.315737 0.841111 -1.720673 -16.014531 0.925220 1.825795 -4.761537 0.000000 -0.000001 0.000000 -32.233367 -25.674669 -26.467915 43.089389 -10.231588 6.156889 -14.661624 -4.437068 17.553134 0.120146 -2.135986 0.002630 -0.000000 -0.000001 0.000000 
15.579258 102.909470 87.126129 -196.887088 49.571563 187.926248 12.679634 3.252368 -4.521787 11.663248 11.031794 -15.073990 0.000000 0.000000 0.000000 0.830133 14.573223 -10.818431 11.049071 7.758145 8.929906 -10.080377 11.211610 -3.802281 0.000002 0.000000 0.000000 0.560211 12.569467 -8.809955 0.000000 0.000000 0.000000 21.591061 29.149618 -64.927211 -59.006967 -28.841724 -29.005355 -2.755793 20.006128 26.728929 15.094013 -13.012268 16.727403 -1.153506 11.257991 -8.413060 5.706542 8.483126 -0.820707 0.000002 -0.000002 0.000001 -1.291519 -7.470750 -5.110733 -0.002006 -0.823183 -18.506068 0.076674 -0.234264 -2.984785 -0.000001 0.000000 -0.000002 1.303967 3.063945 -24.663256 0.471292 -1.179125 -19.128378 0.618086 -1.462972 -22.699837 -0.000002 0.000001 0.000000 1.653457 5.671095 -34.035803 -0.906819 -0.999025 -25.024302 -0.958262 -1.162627 -28.186278 0.000002 -0.000001 0.000001 1.279397 4.888725 -42.390944 -1.078335 -0.680997 -22.872775 -2.673761 -0.470413 -40.804612 -0.000003 -0.000001 -0.000002 1.220463 16.569691 3.011182 0.000000 0.000000 0.000000 -64.817874 30.099991 76.400898 53.142949 8.465450 3.719470 2.148556 35.073407 -9.633454 55.149577 18.649536 -29.698274 -0.442586 -14.180519 7.313134 21.666992 -29.244507 9.142389 0.000002 -0.000001 -0.000001 5.673368 7.585034 36.844185 1.050471 3.824479 68.900237 0.499585 3.026050 62.196461 0.000002 0.000003 -0.000001 -0.125684 1.886104 45.000773 -1.169017 3.204653 68.417643 -0.936411 1.813600 41.107555 0.000002 -0.000000 0.000000 -5.312008 1.216658 58.508814 -0.745228 1.667573 48.011305 -0.816484 1.840594 53.666558 0.000000 0.000000 0.000001 -7.756833 -9.376443 47.263997 -0.526036 1.541560 45.600522 -0.508181 0.803464 24.986606 -0.000003 -0.000000 -0.000000 -49.848660 -5.033414 15.834089 30.305150 -39.639843 4.210605 0.157488 -1.434167 -15.655236 0.847130 1.809887 -4.886957 -0.000000 0.000000 0.000000 -32.856338 -25.402346 -26.837606 42.436652 -8.105475 6.351885 -14.137387 -4.192571 16.524953 0.119885 -2.068496 0.002521 0.000000 0.000000 -0.000000 
15.258846 102.913002 86.625938 -197.445620 51.940573 188.685601 12.498070 3.201794 -4.422632 11.349583 10.896055 -14.949136 0.000000 0.000000 0.000000 0.503249 14.434859 -10.712579 11.312806 7.850707 9.045669 -9.601179 11.292458 -3.805254 0.000002 -0.000000 -0.000000 0.690155 12.814774 -9.700473 0.000000 0.000000 0.000000 17.839870 28.067223 -61.511987 -57.352183 -29.386879 -29.329532 -2.509848 19.581710 26.010332 15.852538 -12.226264 15.981159 -1.153657 11.258089 -8.412003 5.706539 8.483127 -0.820709 0.000000 -0.000001 0.000000 -1.364787 -7.206519 -8.793121 0.033238 -0.710932 -15.958042 0.074804 -0.269122 -3.735194 -0.000002 0.000001 0.000001 1.253981 2.954658 -26.823611 0.431634 -1.287428 -21.434317 0.571731 -1.568822 -25.006129 0.000002 -0.000001 0.000000 1.578070 5.553417 -36.190570 -0.962026 -1.110695 -27.329901 -1.023103 -1.274702 -30.491983 -0.000002 0.000002 -0.000001 1.200973 4.799985 -44.547030 -1.129968 -0.799919 -25.177744 -2.753743 -0.558796 -43.110406 0.000001 0.000003 0.000001 1.222239 16.439873 2.931221 0.000000 0.000000 0.000000 -60.208288 28.479565 76.380810 52.535414 10.352241 -2.661523 -0.725316 34.527802 -2.792959 55.149577 18.649533 -29.698277 -0.442586 -14.180515 7.313134 21.666989 -29.244507 9.142387 0.000000 -0.000002 -0.000002 5.673370 7.585032 36.844185 1.050471 3.824483 68.900237 0.499580 3.026051 62.196461 0.000001 0.000001 0.000001 -0.125684 1.886106 45.000773 -1.169020 3.204646 68.417643 -0.936421 1.813600 41.107558 -0.000003 0.000001 0.000002 -5.312011 1.216657 58.508807 -0.745231 1.667573 48.011316 -0.816475 1.840595 53.666558 -0.000001 -0.000002 -0.000002 -7.756832 -9.376445 47.263997 -0.526035 1.541560 45.600525 -0.508182 0.803465 24.986608 0.000001 0.000001 -0.000001 -49.345935 -4.959966 16.764793 31.298276 -38.031279 4.207988 -0.662829 -1.100334 -15.330004 0.755055 1.796221 -5.006112 0.000000 -0.000000 0.000000 -33.663458 -25.001720 -27.193594 41.985910 -6.139078 6.519284 -13.588089 -3.790318 15.633518 0.118107 -1.636628 0.001957 -0.000000 0.000000 -0.000000 
14.976211 102.850143 85.981514 -198.301046 54.547783 189.688601 12.283968 3.142644 -4.327745 10.965553 10.728932 -14.870416 0.000000 0.000000 0.000000 0.112411 14.271533 -10.661720 11.492974 7.964786 9.125453 -9.194648 11.332438 -3.605145 -0.000003 0.000000 0.000000 0.813240 12.488583 -10.557389 0.000000 0.000000 0.000000 13.645976 26.593007 -57.689164 -53.947054 -30.883817 -28.900846 -2.216751 18.855333 25.368735 16.555667 -11.495696 15.265825 -1.153762 11.258133 -8.410817 5.706541 8.483122 -0.820707 0.000003 -0.000001 0.000003 -1.394216 -6.959260 -12.216311 0.061275 -0.605628 -13.575342 0.072305 -0.301872 -4.436916 -0.000002 0.000001 0.000001 1.204412 2.854582 -28.821721 0.391336 -1.386591 -23.578624 0.525553 -1.665719 -27.150832 0.000004 -0.000001 0.000001 1.504882 5.445197 -38.183394 -1.018048 -1.212286 -29.473987 -1.087905 -1.376239 -32.636160 -0.000000 0.000004 -0.000002 1.125885 4.720292 -46.541179 -1.183247 -0.908407 -27.321254 -2.830983 -0.638959 -45.254641 -0.000000 -0.000004 -0.000000 1.273171 15.702844 2.792938 0.000000 0.000000 0.000000 -54.445668 25.923056 69.909855 52.735938 24.416326 -3.568433 -2.348694 28.229729 0.359076 55.149580 18.649540 -29.698277 -0.442586 -14.180513 7.313131 21.666989 -29.244507 9.142388 0.000001 0.000001 0.000002 5.673372 7.585034 36.844188 1.050472 3.824482 68.900237 0.499581 3.026050 62.196461 0.000003 0.000001 -0.000000 -0.125682 1.886109 45.000773 -1.169019 3.204651 68.417650 -0.936415 1.813600 41.107555 0.000004 0.000000 0.000001 -5.312005 1.216659 58.508814 -0.745232 1.667571 48.011312 -0.816480 1.840595 53.666555 0.000004 0.000001 -0.000003 -7.756832 -9.376443 47.263997 -0.526036 1.541563 45.600522 -0.508186 0.803462 24.986606 -0.000003 0.000002 -0.000000 -48.992991 -4.783751 17.914056 32.529551 -36.419498 3.984835 -1.630760 -0.758705 -14.808359 0.659864 1.783101 -5.128278 0.000000 0.000000 0.000000 -34.458175 -24.232572 -27.289973 41.554775 -4.159098 6.627144 -12.971538 -3.595564 14.865451 0.117188 -1.459215 0.001747 -0.000000 0.000000 -0.000000 
